<?xml version="1.0" encoding="utf-8"?>
<!-- Generator: Adobe Illustrator 18.1.1, SVG Export Plug-In . SVG Version: 6.00 Build 0)  -->
<svg version="1.1" id="Layer_1" xmlns="http://www.w3.org/2000/svg" xmlns:xlink="http://www.w3.org/1999/xlink" x="0px" y="0px"
	 viewBox="0 0 262.6 78.4" enable-background="new 0 0 262.6 78.4" xml:space="preserve">
<g>
	<defs>
		<rect id="SVGID_1_" width="262.6" height="78.4"/>
	</defs>
	<clipPath id="SVGID_2_">
		<use xlink:href="#SVGID_1_"  overflow="visible"/>
	</clipPath>
	<path clip-path="url(#SVGID_2_)" fill="#FFC222" d="M18.3,42.7c0-16.1,35.9-28.6,85-33.2c-38.3,3.9-66,15.7-66,29.6
		c0,2.9,1.1,5.9,3.7,8.6c-0.4,1.4-1.4,2.3-2,3.4h5.7c0.5,0.2,0.9,0.7,1.6,1.1c14.3,10.4,41.8,13.9,38.8,13.9
		C-3.2,66.2,0,36.4,0,36.4C0,16.1,54.6,0,121.7,0h1.6C63,2,16.5,17.8,16.5,36.4C16.5,38.6,17.1,40.7,18.3,42.7"/>
	<path clip-path="url(#SVGID_2_)" fill-rule="evenodd" clip-rule="evenodd" fill="#FFD26E" d="M66.6,65.7L66.6,65.7L66.6,65.7
		 M65.5,65.6l0.5,0.1v-0.1H65.5z M4.7,26.4L4.7,26.4c-2.5,2.7-4.4,5.7-4.6,9.4v1.8h0.1v0.5h0.1v0.4h0.1v0.3h0.1v0.3h0.1v0.2h0.1v0.2
		h0.1v0.2h0.1V40h0.1v0.2h0.1v0.2h0.1v0.2h0.1v0.2h0.1v0.2h0.1V41H1v0.2H1v0.1h0.1v0.2h0.1v0.1h0.1v0.1h0.1v0.2h0.1v0.1h0.1v0.1h0.1
		v0.1h0.1v0.1h0.1v0.1h0.1v0.1h0.1v0.1h0.1v0.1h0.1V43h0.1v0.1h0.1v0.1H2v0.1h0.1l0.1,0.1v0.1h0.1l0.1,0.1v0.1h0.1v0.1h0.1l0.1,0.1
		V44h0.1l0.1,0.1v0.1h0.1v0.1h0.1l0.1,0.1v0.1h0.1l0.1,0.1v0.1h0.1L3,44.8v0.1H3L3.1,45v0.1h0.1l0.1,0.1v0.1h0.1l0.1,0.1v0.1h0.1
		l0.1,0.1v0.1h0.1l0.1,0.1V46h0.1l0.3,0.3v0.1h0.1l0.2,0.2v0.1h0.1L4.8,47v0.1h0.1c12.9,13.9,42.3,17.3,59.8,18.4l0.8,0.1v-0.1
		l-0.6-0.1c-16.6-1.8-44.8-5.7-57.3-18.1H7.5v-0.1l-0.7-0.7H6.7v-0.1l-0.3-0.3H6.3V46l-0.2-0.2H6.1v-0.1l-0.2-0.2H5.8v-0.1l-0.2-0.2
		H5.6v-0.1L5.5,45H5.4v-0.1l-0.1-0.1H5.3v-0.1l-0.1-0.1H5.2v-0.1l-0.1-0.1H5.1v-0.1L5,44.3H4.9v-0.1l-0.1-0.1H4.8V44l-0.1-0.1H4.7
		v-0.1l-0.1-0.1H4.6v-0.1H4.5v-0.1H4.5v-0.1l-0.1-0.1H4.3v-0.1H4.3v-0.1H4.2V43l-0.1-0.1H4.1v-0.1H4v-0.1H4v-0.1H3.9v-0.1H3.9v-0.1
		H3.8v-0.1H3.7v-0.1H3.7v-0.1H3.6v-0.2H3.6v-0.1H3.5v-0.1H3.4v-0.1H3.4v-0.2H3.3v-0.1H3.3v-0.2H3.2v-0.1H3.1v-0.2H3.1v-0.2H3v-0.2H3
		v-0.2H2.9v-0.2H2.8v-0.2H2.8v-0.2H2.7v-0.3H2.7V39H2.6v-0.2H2.5v-0.2H2.5v-0.2H2.4v-0.4H2.4v-0.4H2.3v-0.4H2.2v-0.5H2.2v-1.3H2.1
		v-0.5l0.1-1.1c0.1-1.3,0.4-2.4,0.8-3.6L3,29.9l0.1-0.1c0.4-1.1,0.9-2.1,1.5-3.1l0.1-0.1L4.7,26.4L4.7,26.4z M4.8,26.3L4.8,26.3
		L4.8,26.3L4.8,26.3z M4.8,26.3L4.8,26.3L4.8,26.3L4.8,26.3z"/>
	<path clip-path="url(#SVGID_2_)" fill-rule="evenodd" clip-rule="evenodd" fill="#DD6522" d="M62.7,65.5L62.7,65.5L62.7,65.5
		 M61.9,65.4l0.2,0.1v-0.1H61.9z M61.1,65.3l0.4,0.1v-0.1H61.1z M2.4,29.2l-0.1,0.1l-0.1,0.1C2,29.9,1.6,30.5,1.4,31L1,31.7
		l-0.1,0.4c-0.4,1-0.7,2-0.8,3.1l-0.1,0.7v1.8h0.1v0.5h0.1v0.4h0.1v0.3h0.1v0.3h0.1v0.2h0.1v0.2h0.1v0.2h0.1V40h0.1v0.2h0.1v0.2h0.1
		v0.2h0.1v0.2h0.1v0.2h0.1V41H1v0.2H1v0.1h0.1v0.2h0.1v0.1h0.1v0.1h0.1v0.2h0.1v0.1h0.1v0.1h0.1v0.1h0.1v0.1h0.1v0.1h0.1v0.1h0.1
		v0.1h0.1v0.1h0.1V43h0.1v0.1h0.1v0.1H2v0.1h0.1l0.1,0.1v0.1h0.1l0.1,0.1v0.1h0.1v0.1h0.1l0.1,0.1V44h0.1l0.1,0.1v0.1h0.1v0.1h0.1
		l0.1,0.1v0.1h0.1l0.1,0.1v0.1h0.1L3,44.8v0.1H3L3.1,45v0.1h0.1l0.1,0.1v0.1h0.1l0.1,0.1v0.1h0.1l0.1,0.1v0.1h0.1l0.1,0.1V46h0.1
		l0.3,0.3v0.1h0.1l0.2,0.2v0.1h0.1L4.8,47v0.1h0.1C17,60.3,43.7,63.9,60.3,65.3l0.6,0.1v-0.1l-1.6-0.2c-15.6-1.9-41.4-5.8-53-17.7
		H6.3v-0.1l-0.5-0.5H5.7v-0.1l-0.2-0.2H5.4v-0.1l-0.2-0.2H5.1V46l-0.2-0.2H4.9v-0.1l-0.2-0.2H4.6v-0.1l-0.1-0.1H4.5v-0.1l-0.1-0.1
		H4.3v-0.1l-0.1-0.1H4.2v-0.1l-0.1-0.1H4.1v-0.1L4,44.5H4v-0.1l-0.1-0.1H3.9v-0.1l-0.1-0.1H3.7V44H3.7v-0.1l-0.1-0.1H3.6v-0.1H3.5
		v-0.1H3.4v-0.1H3.4v-0.1H3.3v-0.1l-0.1-0.1H3.2v-0.1H3.1V43H3.1v-0.1H3v-0.1H3v-0.1H2.9v-0.1H2.8v-0.1H2.8v-0.1H2.7v-0.1H2.7v-0.2
		H2.6v-0.1H2.5v-0.1H2.5v-0.1H2.4v-0.2H2.4v-0.1H2.3v-0.2H2.2v-0.2H2.2v-0.2H2.1v-0.2H2.1v-0.2H2v-0.2H1.9V40H1.9v-0.2H1.8v-0.2H1.8
		v-0.2H1.7v-0.2H1.6v-0.3H1.6v-0.2H1.5v-0.3H1.5v-0.4H1.4v-0.4H1.3V37H1.3v-1.1H1.2v-1.1c0.1-1.8,0.5-3.7,1.2-5.3V29.2L2.4,29.2z
		 M2.5,29.2L2.5,29.2L2.5,29.2L2.5,29.2z M2.5,29L2.5,29L2.5,29L2.5,29z"/>
	<path clip-path="url(#SVGID_2_)" fill-rule="evenodd" clip-rule="evenodd" fill="#DD6522" d="M18.1,42.5L18.1,42.5L18.1,42.5
		 M18.1,42.4L18.1,42.4L18.1,42.4L18.1,42.4z M18,42.2v0.1V42.2L18,42.2z M95,2l-1.1,0.1c-19,2-38.6,5.9-56.4,13.1l-0.4,0.2L37,15.5
		c-6.2,2.6-20.4,9.4-21.4,17.2l-0.1,0.7v2.2h0.1v0.7h0.1v0.4h0.1V37h0.1v0.3h0.1v0.3h0.1v0.2h0.1V38H16v0.2H16v0.2h0.1v0.2h0.1v0.2
		h0.1V39h0.1v0.1h0.1v0.1h0.1v0.2h0.1v0.1h0.1v0.1h0.1v0.1h0.1V40h0.1v0.1h0.1v0.1h0.1v0.1h0.1v0.1h0.1v0.1H17l0.1,0.1v0.1h0.1v0.1
		h0.1V41h0.1v0.1h0.1v0.1h0.1l0.1,0.1v0.1h0.1v0.1h0.1l0.1,0.1v0.1h0.1v0.1h0.1l0.1,0.1V42h0.1l0.1,0.1v0.1H18l0.1,0.1v-0.1H18v-0.2
		h-0.1v-0.1h-0.1v-0.1h-0.1v-0.1h-0.1v-0.1h-0.1v-0.1h-0.1v-0.1h-0.1v-0.1h-0.1v-0.2h-0.1v-0.2h-0.1v-0.2h-0.1v-0.1h-0.1v-0.2h-0.1
		v-0.2h-0.1V40h-0.1v-0.2H17v-0.2h-0.1v-0.2h-0.1V39h-0.1v-0.2h-0.1v-0.3h-0.1v-0.2h-0.1v-0.4h-0.1v-0.5h-0.1v-1.6
		C19.1,13,79.5,3.5,95,2h0.5H95z M95.6,2L96.1,2V2H95.6z M96.3,1.9L96.6,2V1.9H96.3z M97,1.9l0.2,0.1V1.9H97z M97.7,1.8l0.1,0.1V1.8
		H97.7z M98.4,1.7L98.4,1.7L98.4,1.7L98.4,1.7z"/>
	<path clip-path="url(#SVGID_2_)" fill-rule="evenodd" clip-rule="evenodd" fill="#FFD26E" d="M40.3,47L40.3,47L40.3,47 M40.2,47
		L40.2,47L40.2,47L40.2,47z M40.2,46.9L40.2,46.9L40.2,46.9L40.2,46.9z M40.1,46.9L40.1,46.9L40.1,46.9L40.1,46.9z M40,46.8L40,46.8
		L40,46.8L40,46.8z M85.2,12.1l-0.4,0.1c-11,1.8-48.7,8.5-49.6,24.1v1.2h0.1v0.7h0.1v0.5h0.1v0.3h0.1v0.3h0.1v0.3h0.1v0.2h0.1v0.2
		h0.1v0.2h0.1v0.2h0.1v0.2h0.1v0.2H36v0.2H36V41h0.1v0.1h0.1v0.1h0.1v0.2h0.1v0.1h0.1v0.1h0.1v0.2h0.1V42h0.1v0.1h0.1v0.1h0.1v0.1
		h0.1v0.1h0.1v0.1h0.1v0.1h0.1l0.1,0.1v0.1H37V43H37l0.1,0.1v0.1h0.1v0.1h0.1l0.1,0.1v0.1h0.1l0.1,0.1v0.1h0.1l0.1,0.1v0.1h0.1
		l0.1,0.1V44h0.1l0.1,0.1v0.1h0.1l0.1,0.1v0.1h0.1l0.2,0.2v0.1h0.1l0.1,0.1v0.1h0.1l0.2,0.2v0.1h0.1l0.3,0.3v0.1H39l0.5,0.5v0.1h0.1
		l0.5,0.5v-0.1L40,46.6h-0.1v-0.1l-0.1-0.1h-0.1v-0.1l-0.1-0.1h-0.1v-0.1L39.5,46h-0.1v-0.1l-0.1-0.1h-0.1v-0.1l-0.1-0.1h-0.1v-0.1
		h-0.1v-0.1l-0.1-0.1H39v-0.1H39v-0.1h-0.1v-0.1l-0.1-0.1h-0.1v-0.1h-0.1v-0.1h-0.1v-0.1h-0.1v-0.1h-0.1v-0.1h-0.1v-0.1h-0.1V44
		h-0.1v-0.1h-0.1v-0.2h-0.1v-0.1h-0.1v-0.1h-0.1v-0.2h-0.1v-0.2H38V43h-0.1v-0.1h-0.1v-0.2h-0.1v-0.2h-0.1v-0.2h-0.1V42h-0.1v-0.2
		h-0.1v-0.2h-0.1v-0.3h-0.1v-0.4h-0.1v-0.4h-0.1v-1h-0.1v-0.5C38,22.5,73.3,14.2,85.2,12.1h0.4H85.2z M85.6,12l0.3,0.1V12H85.6z
		 M86,11.9l0.2,0.1v-0.1H86z M86.4,11.9l0.2,0.1v-0.1H86.4z M86.8,11.8l0.2,0.1v-0.1H86.8z M87.2,11.8l0.1,0.1v-0.1H87.2z
		 M87.6,11.7l0.1,0.1v-0.1H87.6z M88,11.6L88,11.6L88,11.6L88,11.6z"/>
	<path clip-path="url(#SVGID_2_)" fill-rule="evenodd" clip-rule="evenodd" fill="#DD6522" d="M39.1,45.4L39.1,45.4L39.1,45.4
		 M39,45.2L39,45.2L39,45.2L39,45.2z M38.9,45.1v0.1V45.1L38.9,45.1z M38.8,44.9V45h0.1l0.1,0.1v-0.1L38.8,44.9L38.8,44.9z
		 M70.5,15.4l-0.2,0.1c-9.4,2.3-33.7,9.3-34.1,21.8V38h0.1v0.8h0.1v0.4h0.1v0.4h0.1v0.3h0.1v0.2h0.1v0.2h0.1v0.2h0.1v0.2h0.1V41h0.1
		v0.2h0.1v0.2h0.1v0.2h0.1v0.1H37v0.2H37V42h0.1v0.1h0.1v0.1h0.1v0.1h0.1v0.1h0.1v0.1h0.1v0.2h0.1v0.1h0.1l0.1,0.1v0.1h0.1v0.1h0.1
		v0.1h0.1v0.1h0.1v0.1h0.1l0.1,0.1v0.1H38v0.1h0.1l0.1,0.1V44h0.1l0.1,0.1v0.1h0.1l0.1,0.1v0.1h0.1v0.1h0.1l0.1,0.1v0.1h0.1l0.1,0.1
		v-0.1h-0.1v-0.1h-0.1v-0.1h-0.1v-0.1h-0.1v-0.1h-0.1v-0.1h-0.1V44h-0.1v-0.1h-0.1v-0.2h-0.1v-0.1h-0.1v-0.1h-0.1v-0.2h-0.1v-0.2H38
		V43h-0.1v-0.1h-0.1v-0.2h-0.1v-0.2h-0.1v-0.2h-0.1V42h-0.1v-0.2h-0.1v-0.2h-0.1v-0.3h-0.1v-0.4h-0.1v-0.4h-0.1v-1h-0.1v-0.5
		C37.7,26,60.6,18.2,70.5,15.4h0.2H70.5z M70.9,15.3l-0.2,0.1l0.2,0.1L70.9,15.3h0.3H70.9z M71.2,15.2l0.2,0.1v-0.1H71.2z
		 M71.5,15.2l0.2,0.1v-0.1H71.5z M71.7,15.1l0.2,0.1v-0.1H71.7z M72,15.1l0.2,0.1v-0.1H72z M72.2,15l0.1,0.1V15H72.2z M72.5,14.9
		L72.5,14.9L72.5,14.9L72.5,14.9z M72.7,14.9L72.7,14.9L72.7,14.9L72.7,14.9z M73,14.8L73,14.8L73,14.8L73,14.8z"/>
	<path clip-path="url(#SVGID_2_)" fill="#FFC222" d="M244,35.7c0,16.1-35.8,28.4-84.7,33.2c38.3-4.1,65.9-15.7,65.9-29.5
		c0-3.2-1.4-6.2-3.8-8.9c0.7-1.6,1.3-2.8,2.3-3.8h-6.7c-0.2-0.2-0.4-0.2-0.7-0.5c-14.4-10.4-42-14.1-38.8-14.1
		c87.9,0,84.9,29.8,84.9,29.8c0,20.2-54.5,36.6-121.9,36.6h-1.4c60.1-2.3,106.6-17.9,106.6-36.6C245.9,39.8,245.4,37.7,244,35.7"/>
	<path clip-path="url(#SVGID_2_)" fill-rule="evenodd" clip-rule="evenodd" fill="#FFD26E" d="M155.4,78.2l0.4,0.1v-0.1 M256,29.5
		L256,29.5l0.4,0.4v0.1h0.1l0.3,0.3v0.1h0.1l0.1,0.1v0.1h0.1l0.1,0.1v0.1h0.1l0.1,0.1v0.1h0.1l0.2,0.2v0.1h0.1l0.1,0.1v0.1h0.1
		l0.1,0.1v0.1h0.1v0.1h0.1l0.1,0.1V32h0.1l0.1,0.1v0.1h0.1l0.1,0.1v0.1h0.1l0.1,0.1v0.1h0.1v0.1h0.1v0.1h0.1v0.1h0.1v0.1h0.1v0.1
		h0.1l0.1,0.1v0.1h0.1v0.1h0.1v0.1h0.1v0.1h0.1v0.2h0.1V34h0.1v0.1h0.1v0.2h0.1v0.1h0.1v0.1h0.1v0.2h0.1v0.1h0.1V35h0.1v0.2h0.1v0.2
		h0.1v0.2h0.1v0.2h0.1v0.2h0.1v0.3h0.1v0.2h0.1v0.2h0.1V37h0.1v0.3h0.1v0.4h0.1v0.4h0.1v0.5h0.1l-0.1,2.2
		C258.4,70,173.6,76.6,157.7,78l-1.6,0.1l1.1,0.1v-0.1l1.6-0.1l1.2-0.1c25.8-1.4,54.3-4.8,78.5-14.3l0.2-0.1l0.2-0.1
		c7.8-2.9,22.7-11.2,23.5-20.5l0.1-1.1l0.1-0.6h-0.1v-0.7h-0.1v-0.5h-0.1v-0.3h-0.1v-0.3h-0.1v-0.3h-0.1v-0.2h-0.1v-0.2h-0.1v-0.2
		h-0.1v-0.2H262v-0.2H262V38h-0.1v-0.2h-0.1v-0.2h-0.1v-0.2h-0.1v-0.2h-0.1v-0.1h-0.1V37h-0.1v-0.2h-0.1v-0.1h-0.1v-0.1h-0.1v-0.2
		h-0.1v-0.1h-0.1v-0.1h-0.1v-0.1h-0.1v-0.1h-0.1v-0.1H261v-0.1H261v-0.1h-0.1v-0.1l-0.1-0.1h-0.1v-0.1h-0.1v-0.1h-0.1V35h-0.1v-0.1
		h-0.1v-0.1l-0.1-0.1h-0.1v-0.1l-0.1-0.1h-0.1v-0.1h-0.1v-0.1l-0.1-0.1h-0.1v-0.1l-0.1-0.1H260V34h-0.1v-0.1l-0.1-0.1h-0.1v-0.1
		l-0.1-0.1h-0.1v-0.1l-0.1-0.1h-0.1v-0.1l-0.1-0.1h-0.1V33l-0.1-0.1h-0.1v-0.1l-0.1-0.1H259v-0.1l-0.2-0.2h-0.1v-0.1l-0.3-0.3h-0.1
		v-0.1l-0.2-0.2h-0.1v-0.1l-0.3-0.3h-0.1v-0.1l-1.6-1.6H256z M256,29.4L256,29.4L256,29.4L256,29.4z"/>
	<path clip-path="url(#SVGID_2_)" fill-rule="evenodd" clip-rule="evenodd" fill="#FFD26E" d="M180.6,66.2L180.6,66.2L180.6,66.2
		 M180.9,66.2l0.2,0.1v-0.1H180.9z M181.2,66.1l0.2,0.1v-0.1H181.2z M181.5,66.1l0.2,0.1v-0.1H181.5z M181.8,66l0.3,0.1V66H181.8z
		 M182.2,65.9l0.3,0.1v-0.1H182.2z M245.9,41v0.4V41L245.9,41z M245.8,40.3v0.5V40.3L245.8,40.3z M245.8,39.8v0.3V39.8L245.8,39.8z
		 M245.7,39.6v0.2V39.6L245.7,39.6z M245.7,39.3v0.2V39.3L245.7,39.3z M245.6,39v0.2V39L245.6,39z M245.5,38.8v0.1V38.8L245.5,38.8z
		 M245.5,38.6L245.5,38.6L245.5,38.6L245.5,38.6z M245.4,38.5L245.4,38.5L245.4,38.5L245.4,38.5z M245.4,38.3L245.4,38.3L245.4,38.3
		L245.4,38.3z M245.3,38.1L245.3,38.1L245.3,38.1L245.3,38.1z M245.2,37.9L245.2,37.9L245.2,37.9L245.2,37.9z M245.2,37.7v0.1V37.7
		L245.2,37.7z M245.1,37.6L245.1,37.6L245.1,37.6L245.1,37.6z M245.1,37.5L245.1,37.5L245.1,37.5L245.1,37.5z M245,37.4L245,37.4
		L245,37.4L245,37.4z M244.9,37.2L244.9,37.2L244.9,37.2L244.9,37.2z M244.9,37.1L244.9,37.1L244.9,37.1L244.9,37.1z M244.8,37
		L244.8,37L244.8,37L244.8,37z M244.8,36.8L244.8,36.8L244.8,36.8L244.8,36.8z M244.7,36.7L244.7,36.7L244.7,36.7L244.7,36.7z
		 M244.6,36.6L244.6,36.6L244.6,36.6L244.6,36.6z M244.6,36.5v0.1V36.5L244.6,36.5z M244.5,36.4L244.5,36.4L244.5,36.4L244.5,36.4z
		 M244.5,36.3L244.5,36.3L244.5,36.3L244.5,36.3z M244.4,36.2v0.1V36.2L244.4,36.2z M244.3,36.1v0.1V36.1L244.3,36.1z M244.2,35.9
		V36h0.1l0.1,0.1v-0.1L244.2,35.9L244.2,35.9z M244.2,35.8v0.1V35.8L244.2,35.8z M242.3,33.5l-0.1,0.2c-1,19-45.4,29.6-59.2,32
		l-0.6,0.1l0.4,0.1v-0.1l0.4-0.1c12.8-2.1,60.4-10.9,60.8-30.1l0.1-0.1h-0.1v-0.1l-0.1-0.1H244v-0.1l-0.1-0.1h-0.1v-0.1l-0.1-0.1
		h-0.1V35l-0.1-0.1h-0.1v-0.1l-0.2-0.2h-0.1v-0.1L242.3,33.5L242.3,33.5z"/>
	<path clip-path="url(#SVGID_2_)" fill-rule="evenodd" clip-rule="evenodd" fill="#FFD26E" d="M224.4,43.7L224.4,43.7L224.4,43.7
		 M224.5,43.6v0.1V43.6L224.5,43.6z M224.5,43.5v0.1V43.5L224.5,43.5z M222.5,28.5l-0.1,0.1c-0.3,0.6-0.6,1.2-0.9,1.8v0.2h0.1
		l0.2,0.2v0.1h0.1l0.4,0.4v0.1h0.1l0.2,0.2v0.1h0.1l0.1,0.1v0.1h0.1l0.1,0.1v0.1h0.1l0.1,0.1v0.1h0.1l0.1,0.1v0.1h0.1v0.1h0.1
		l0.1,0.1v0.1h0.1l0.1,0.1v0.1h0.1v0.1h0.1l0.1,0.1v0.1h0.1l0.1,0.1v0.1h0.1v0.1h0.1v0.1h0.1V34h0.1v0.1h0.1v0.1h0.1v0.1h0.1v0.1
		h0.1v0.1h0.1v0.1h0.1v0.1h0.1v0.1h0.1v0.2h0.1v0.1h0.1v0.2h0.1v0.1h0.1v0.2h0.1v0.2h0.1v0.2h0.1v0.2h0.1v0.2h0.1v0.2h0.1V37h0.1
		v0.2h0.1v0.4h0.1v0.4h0.1v0.6h0.1l-0.1,1.7c-0.1,1.1-0.3,2.1-0.7,3.2v0.1l0.1-0.1c1-1.7,1.7-3.3,1.8-5.3l0.1-1.7h-0.1V36h-0.1v-0.4
		h-0.1v-0.3h-0.1V35h-0.1v-0.2h-0.1v-0.2h-0.1v-0.2H226v-0.2H226V34h-0.1v-0.2h-0.1v-0.2h-0.1v-0.1h-0.1v-0.2h-0.1v-0.1h-0.1v-0.2
		h-0.1v-0.1h-0.1v-0.1h-0.1v-0.1h-0.1v-0.1h-0.1v-0.1h-0.1v-0.1h-0.1v-0.1h-0.1v-0.1h-0.1V32H225v-0.1H225v-0.1l-0.1-0.1h-0.1v-0.1
		h-0.1v-0.1h-0.1v-0.1l-0.1-0.1h-0.1v-0.1h-0.1V31l-0.1-0.1h-0.1v-0.1l-0.1-0.1h-0.1v-0.1l-0.1-0.1h-0.1v-0.1l-0.1-0.1h-0.1v-0.1
		l-0.1-0.1h-0.1v-0.1l-0.1-0.1h-0.1v-0.1l-0.1-0.1h-0.1v-0.1l-0.1-0.1h-0.1v-0.1l-0.2-0.2H223V29l-0.2-0.2h-0.1v-0.1l-0.1-0.1H222.5
		z M180.4,12.8l0.3,0.1c12.5,2.8,25.9,6.2,36.4,13.7l3.6,0.1v-0.1c-9-8.8-25.4-11.7-37.3-13.4l-2.4-0.3H180.4z M180.2,12.8l0.2,0.1
		v-0.1H180.2z"/>
	<path clip-path="url(#SVGID_2_)" fill-rule="evenodd" clip-rule="evenodd" fill="#DD6522" d="M237.5,63.6l0.1,0.1v-0.1H237.5z
		 M237.6,63.5l0.2,0.1v-0.1H237.6z M237.8,63.5l0.1,0.1v-0.1H237.8z M237.9,63.4l0.1,0.1v-0.1H237.9z M238.1,63.4l0.1,0.1v-0.1
		H238.1z M238.2,63.3l0.1,0.1v-0.1H238.2z M238.4,63.2L238.4,63.2L238.4,63.2L238.4,63.2z M238.5,63.2L238.5,63.2L238.5,63.2
		L238.5,63.2z M238.7,63.1L238.7,63.1L238.7,63.1L238.7,63.1z M238.8,63.1L238.8,63.1L238.8,63.1L238.8,63.1z M239.1,62.9
		L239.1,62.9L239.1,62.9L239.1,62.9z M239.4,62.8L239.4,62.8L239.4,62.8L239.4,62.8z M239.5,62.8L239.5,62.8L239.5,62.8L239.5,62.8z
		 M239.8,62.6L239.8,62.6L239.8,62.6L239.8,62.6z M240,62.6L240,62.6L240,62.6L240,62.6z M240.1,62.5l0.1,0.1v-0.1H240.1z
		 M240.2,62.5l0.1,0.1v-0.1H240.2z M240.4,62.4L240.4,62.4L240.4,62.4L240.4,62.4z M240.5,62.3l0.1,0.1v-0.1H240.5z M240.6,62.3
		l0.1,0.1v-0.1H240.6z M240.7,62.2l0.1,0.1v-0.1H240.7z M240.9,62.2l0.2,0.1v-0.1H240.9z M241,62.1l0.1,0.1v-0.1H241z M241.2,62
		l0.1,0.1V62H241.2z M253.8,54.8L253.8,54.8c-3.7,2.7-7.6,4.9-11.8,6.8l-0.7,0.4l0.2,0.1V62l0.2-0.1l0.2-0.1l0.5-0.2
		c2-0.8,3.9-1.8,5.8-2.9l0.1-0.1l0.4-0.2l0.1-0.1l0.2-0.1l0.1-0.1l0.2-0.1l0.1-0.1l0.4-0.2l0.1-0.1l0.1-0.1l0.1-0.1l0.1-0.1l0.1-0.1
		l0.2-0.1l0.1-0.1l0.1-0.1l0.1-0.1c1-0.7,2.2-1.4,3.1-2.2l0.1-0.1l0.2-0.2H253.8z M254,54.6L254,54.6l-0.1,0.1l0.1,0.1v-0.1l0.1-0.1
		H254z M254.2,54.5L254.2,54.5l0.1,0.1L254.2,54.5h0.1H254.2z M254.3,54.4L254.3,54.4L254.3,54.4L254.3,54.4z M254.4,54.4
		L254.4,54.4L254.4,54.4L254.4,54.4z M254.4,54.3L254.4,54.3L254.4,54.3L254.4,54.3z M254.6,54.2L254.6,54.2L254.6,54.2L254.6,54.2z
		 M255,53.9L255,53.9L255,53.9L255,53.9z M255,53.8L255,53.8L255,53.8L255,53.8z M255.3,53.6L255.3,53.6L255.3,53.6L255.3,53.6z
		 M255.3,53.6L255.3,53.6L255.3,53.6L255.3,53.6z M255.4,53.5L255.4,53.5L255.4,53.5L255.4,53.5z M255.6,53.3L255.6,53.3l-0.1,0.1
		l0.1,0.1v-0.1l0.1-0.1H255.6z M255.7,53.3L255.7,53.3L255.7,53.3L255.7,53.3z M261.4,36.7V37h0.1v0.2h0.1v0.3h0.1v0.2h0.1v0.4h0.1
		v0.4h0.1v0.4h0.1v0.8h0.1l-0.1,1.4l-0.1,1c-0.3,2.3-1,4.4-2.2,6.4l-0.1,0.1l-0.1,0.2l-0.1,0.1c-0.2,0.3-0.4,0.7-0.7,1l-0.1,0.1
		l-0.1,0.1c-0.3,0.5-0.8,1-1.1,1.4l-0.4,0.4l-0.1,0.1l-1.2,1.2l0.1,0.1v-0.1c4.2-3.4,6.4-5.7,6.7-11.3l0.1-0.6h-0.1v-0.7h-0.1v-0.5
		h-0.1v-0.3h-0.1v-0.3h-0.1v-0.3h-0.1v-0.2h-0.1v-0.2h-0.1v-0.2h-0.1v-0.2H262v-0.2H262V38h-0.1v-0.2h-0.1v-0.2h-0.1v-0.2h-0.1v-0.2
		h-0.1v-0.1h-0.1V37h-0.1v-0.2h-0.1L261.4,36.7L261.4,36.7z M261.4,36.6v0.1V36.6L261.4,36.6z M261.3,36.4L261.3,36.4L261.3,36.4
		L261.3,36.4z"/>
	<path clip-path="url(#SVGID_2_)" fill-rule="evenodd" clip-rule="evenodd" fill="#DD6522" d="M225.1,41.8v0.1V41.8 M222.1,29.3
		L222.1,29.3l-0.3,0.5l-0.1,0.2l-0.2,0.4v0.2h0.1l0.2,0.2v0.1h0.1l0.4,0.4v0.1h0.1l0.2,0.2v0.1h0.1l0.1,0.1v0.1h0.1l0.1,0.1v0.1h0.1
		l0.1,0.1v0.1h0.1l0.1,0.1v0.1h0.1v0.1h0.1l0.1,0.1v0.1h0.1l0.1,0.1v0.1h0.1v0.1h0.1l0.1,0.1v0.1h0.1l0.1,0.1v0.1h0.1v0.1h0.1v0.1
		h0.1V34h0.1v0.1h0.1v0.1h0.1v0.1h0.1v0.1h0.1v0.1h0.1v0.1h0.1v0.1h0.1v0.1h0.1v0.2h0.1v0.1h0.1v0.2h0.1v0.1h0.1v0.2h0.1v0.2h0.1
		v0.2h0.1v0.2h0.1v0.2h0.1v0.2h0.1V37h0.1v0.2h0.1v0.4h0.1v0.4h0.1v0.6h0.1l-0.1,1.7l-0.1,0.7l-0.1,0.3l-0.1,0.4v0.2l0.2-0.5
		c0.3-0.9,0.5-1.9,0.5-2.8l0.1-0.9h-0.1v-0.7h-0.1v-0.5h-0.1v-0.3h-0.1v-0.2h-0.1v-0.3h-0.1v-0.2h-0.1v-0.2h-0.1v-0.2h-0.1v-0.2
		h-0.1v-0.1h-0.1v-0.2h-0.1v-0.2h-0.1v-0.1H225v-0.2H225v-0.1h-0.1v-0.2h-0.1v-0.1h-0.1v-0.1h-0.1v-0.1h-0.1v-0.1h-0.1V33h-0.1v-0.1
		h-0.1v-0.1h-0.1v-0.1h-0.1v-0.1h-0.1v-0.1l-0.1-0.1h-0.1v-0.1h-0.1v-0.1h-0.1V32l-0.1-0.1h-0.1v-0.1l-0.1-0.1h-0.1v-0.1h-0.1v-0.1
		l-0.1-0.1h-0.1v-0.1l-0.1-0.1h-0.1v-0.1l-0.1-0.1h-0.1V31l-0.1-0.1h-0.1v-0.1l-0.1-0.1h-0.1v-0.1l-0.1-0.1h-0.1v-0.1l-0.2-0.2h-0.1
		V30l-0.2-0.2h-0.1v-0.1l-0.2-0.2h-0.1L222.1,29.3L222.1,29.3z M177.7,12.2l0.2,0.1c13.3,2.9,27.9,6.3,39.1,14.3l2.2,0.1v-0.1
		c-8.9-7.9-26.9-11.8-38.3-13.9l-2.9-0.5H177.7z M177.6,12.2l0.2,0.1v-0.1H177.6z"/>
	<path clip-path="url(#SVGID_2_)" fill-rule="evenodd" clip-rule="evenodd" fill="#DD6522" d="M203.2,61.7L203.2,61.7L203.2,61.7
		 M203.4,61.7L203.4,61.7L203.4,61.7L203.4,61.7z M203.6,61.6l0.1,0.1v-0.1H203.6z M203.8,61.6l0.1,0.1v-0.1H203.8z M204.1,61.5
		l0.1,0.1v-0.1H204.1z M204.3,61.4l0.2,0.1v-0.1H204.3z M204.4,61.4l0.2,0.1v-0.1H204.4z M204.7,61.3l0.2,0.1v-0.1H204.7z
		 M244.8,36.8L244.8,36.8L244.8,36.8L244.8,36.8z M244.7,36.7L244.7,36.7L244.7,36.7L244.7,36.7z M244.6,36.6L244.6,36.6L244.6,36.6
		L244.6,36.6z M244.6,36.5v0.1V36.5L244.6,36.5z M244.5,36.4v0.1V36.4L244.5,36.4z M244.3,36.1v0.1h0.1v0.1h0.1l0.1,0.1v-0.1h-0.1
		v-0.1L244.3,36.1L244.3,36.1z M244.2,35.8v0.1h0.1V36h0.1l0.1,0.1v-0.1h-0.1v-0.1L244.2,35.8L244.2,35.8z M243,34.4l-0.1,0.7
		C242,49.1,216,58.1,205,61.2l-0.2,0.1l0.2,0.1v-0.1l0.5-0.1c10.6-2.8,38.3-10.9,38.5-25.4l0.1-0.1l-0.1-0.1H244v-0.1l-0.1-0.1h-0.1
		v-0.1L243,34.4L243,34.4z"/>
	<path clip-path="url(#SVGID_2_)" fill-rule="evenodd" clip-rule="evenodd" fill="#DD6522" d="M260.8,35.3c0,0,1.7,5.1-0.1,10.8
		s-15,14.7-25.1,18.6c4.4-1.7,14.9-5.5,22.5-13.2C258.1,51.5,265.7,45,260.8,35.3"/>
	<path clip-path="url(#SVGID_2_)" fill="#20388E" d="M77.7,46.6l1.4-6.1h8c1.4,0,1.8,0.2,2.7,0.7l1.1-4.8c-0.9,0.5-1.6,0.5-2.3,0.5
		h-8.4l1.3-5.5H90c1.4,0,1.9,0,2.8,0.5l0.4-4.3H72.9c0.2,0.4,0.2,0.7,0.2,1.1c0,0.4,0,1.6-0.2,1.8l-4.1,15.9c-0.4,2-0.7,2.8-1.6,3.8
		h20l1.9-4.3c-0.9,0.4-1.6,0.7-2.5,0.7H77.7z M69.4,33.2c0.2-0.9,0.4-1.1,0.4-1.6c0-1.1-0.7-2.3-1.4-2.9c-0.9-1-2-1.1-4.3-1.1H46.3
		c0,0.4,0.2,0.7,0.2,1.1c0,0.4-0.2,1.6-0.2,1.8l-4.1,15.9c-0.7,2-0.9,2.8-1.8,3.8h10.3c-0.2-0.4-0.2-0.7-0.2-1.1
		c0-0.5,0.2-1.4,0.2-1.9l1.4-5h9.4c2.9,0,3.6-0.2,4.7-1.1c1.1-0.9,1.6-1.6,2.3-3.8L69.4,33.2z M60.7,33l-0.7,3.4c-0.7,1.9-0.9,2-3,2
		H53l1.8-7h4.4c1.3,0,1.8,0.2,1.8,0.9C61,32.5,60.7,32.8,60.7,33 M107.3,40l-0.7-12.5H95c0.2,0.4,0.2,0.7,0.2,1.1
		c0,0.4,0,1.6-0.2,1.8l-4.1,15.9c-0.4,2-0.9,2.8-1.6,3.8h5.2c-0.2-0.4-0.2-0.7-0.2-1.1c0-0.5,0-1.4,0.2-1.9l3.7-15l1.4,17.9h6.2
		L116,32.3l-3.7,14.1c-0.5,2-0.7,2.8-1.6,3.8H121c-0.2-0.4-0.2-0.7-0.2-1.1c0-0.5,0-1.4,0.2-1.9l4.1-15.9c0.5-2,0.7-2.5,1.6-3.8
		h-12.1L107.3,40z M181.8,33c0.4-1.6,0.7-1.6,2.7-1.6h5.9c1.4,0,1.9,0,3.2,0.7l0.5-4.5h-13c-4.8-0.2-7.1,1.1-8,4.7l-2.9,11.8
		c-0.5,1.1-0.5,1.6-0.5,2c0,1.6,0.9,3,2.3,3.7c0.9,0.4,0.9,0.4,4.6,0.4h11.6l1.9-4.5c-1,0.4-2.1,0.9-3.4,0.9h-5.8
		c-1.1,0-1.1,0-1.6-0.2c-0.5,0-0.7-0.4-0.7-0.9c0-0.2,0-0.5,0.2-1.1L181.8,33z M211.6,27.5c0.2,0.4,0.2,0.7,0.2,1.1
		c0,0.4,0,1.6-0.2,1.8l-1.4,6.1h-6.2l1.2-5.2c0.7-2,0.9-2.7,1.8-3.8h-10.3c0.2,0.4,0.2,0.7,0.2,1.1c0,0.4-0.2,1.3-0.2,1.8l-4.1,15.9
		c-0.7,2-0.9,2.8-1.6,3.8h10c-0.2-0.4-0.2-0.7-0.2-1.1c0-0.5,0.2-1.4,0.2-1.9l1.8-7h6.2l-1.6,6.1c-0.5,2-0.7,2.8-1.6,3.8h10.3
		c-0.2-0.4-0.2-0.7-0.2-1.1c0-0.5,0-1.4,0.2-1.9l4.1-15.9c0.4-2,0.7-2.7,1.6-3.8H211.6z M149.5,31.6l0.2-4.1h-21l-1.9,4.1
		c1-0.2,1.4-0.2,2.1-0.2h5l-3.8,15c-0.7,2-0.9,2.8-1.9,3.8h10.3c-0.2-0.4-0.2-0.7-0.2-1.1c0-0.5,0.2-1.4,0.2-1.9l4.1-15.9h4.8
		C148.4,31.4,148.9,31.4,149.5,31.6 M165.7,40.5c1.4,0,1.9,0.2,2.8,0.7l1.1-4.8c-0.7,0.5-1.4,0.5-2.3,0.5h-8.5l1.1-5.5l0.3,0h8.5
		c1.4,0,1.8,0,2.7,0.5l0.5-4.3h-20.3c0.2,0.4,0.2,0.7,0.2,1.1c0,0.4,0,1.6-0.2,1.8l-4.1,15.9c-0.5,2-0.7,2.8-1.6,3.8H166l1.9-4.3
		c-1,0.4-1.6,0.7-2.5,0.7h-8.9l1.6-6.1H165.7z"/>
</g>
</svg>
